<svg xmlns="http://www.w3.org/2000/svg" width="32" height="32" viewBox="0 0 32 32" fill="none">
  <defs>
    <linearGradient id="grad1" x1="0%" y1="0%" x2="100%" y2="100%">
      <stop offset="0%" style="stop-color:#D0BFFF;stop-opacity:1" />
      <stop offset="100%" style="stop-color:#FFC8DD;stop-opacity:1" />
    </linearGradient>
  </defs>
  <rect width="32" height="32" rx="10" fill="url(#grad1)" />
  
  <!-- Brain Circuit Icon -->
  <g transform="translate(4, 4) scale(1)">
    <path d="M12 5a3 3 0 1 0-5.997.125 4 4 0 0 0-2.526 5.77 4 4 0 0 0 .556 6.588A4 4 0 1 0 12 18Z" stroke="white" stroke-width="2" stroke-linecap="round" stroke-linejoin="round"/>
    <path d="M9 13a4.5 4.5 0 0 0 3-4" stroke="white" stroke-width="2" stroke-linecap="round" stroke-linejoin="round"/>
    <path d="M6.003 5.125A3 3 0 0 0 6.401 6.5" stroke="white" stroke-width="2" stroke-linecap="round" stroke-linejoin="round"/>
    <path d="M3.477 10.896a4 4 0 0 1 .585-.396" stroke="white" stroke-width="2" stroke-linecap="round" stroke-linejoin="round"/>
    <path d="M6 18a4 4 0 0 1-1.967-.516" stroke="white" stroke-width="2" stroke-linecap="round" stroke-linejoin="round"/>
    <path d="M12 13h4" stroke="white" stroke-width="2" stroke-linecap="round" stroke-linejoin="round"/>
    <path d="M12 18h6a2 2 0 0 1 2 2v1" stroke="white" stroke-width="2" stroke-linecap="round" stroke-linejoin="round"/>
    <path d="M12 8h8" stroke="white" stroke-width="2" stroke-linecap="round" stroke-linejoin="round"/>
    <path d="M16 8V5a2 2 0 0 1 2-2" stroke="white" stroke-width="2" stroke-linecap="round" stroke-linejoin="round"/>
    <circle cx="16" cy="13" r="1" fill="white"/>
    <circle cx="18" cy="3" r="1" fill="white"/>
    <circle cx="20" cy="21" r="1" fill="white"/>
    <circle cx="20" cy="8" r="1" fill="white"/>
  </g>

  <!-- Sparkles -->
  <g transform="translate(20, 2) scale(0.6)">
    <path d="M9.937 15.5A2 2 0 0 0 8.5 14.063l-6.135-1.582a.5.5 0 0 1 0-.962L8.5 9.936A2 2 0 0 0 9.937 8.5l1.582-6.135a.5.5 0 0 1 .963 0L14.063 8.5A2 2 0 0 0 15.5 9.937l6.135 1.581a.5.5 0 0 1 0 .964L15.5 14.063a2 2 0 0 0-1.437 1.437l-1.582 6.135a.5.5 0 0 1-.963 0z" fill="#FFAFCC" stroke="#FFAFCC" stroke-width="2" stroke-linecap="round" stroke-linejoin="round"/>
  </g>
</svg>